<svg width="304" height="193" viewBox="0 0 304 193" fill="none" xmlns="http://www.w3.org/2000/svg">
<path d="M11.5398 97.27C10.6532 96.99 9.97651 96.43 9.50984 95.59C9.08984 94.75 8.87984 93.7233 8.87984 92.51C8.87984 90.3167 9.46318 87.6333 10.6298 84.46C11.8432 81.2867 13.3832 78.02 15.2498 74.66C16.6498 72.14 18.1432 69.7367 19.7298 67.45C21.3632 65.1167 22.9498 63.04 24.4898 61.22C26.0765 59.4 27.4998 57.9767 28.7598 56.95C30.0665 55.8767 31.1398 55.34 31.9798 55.34C32.7732 55.34 33.4032 55.6433 33.8698 56.25C34.3365 56.8567 34.7798 57.5333 35.1998 58.28C35.6198 59.0267 36.1332 59.5867 36.7398 59.96C36.7865 60.0533 36.8098 60.17 36.8098 60.31C36.8098 60.45 36.8098 60.5667 36.8098 60.66C36.8098 61.8733 36.3898 63.2033 35.5498 64.65C34.7565 66.0967 33.7065 67.5667 32.3998 69.06C31.1398 70.5533 29.7865 72 28.3398 73.4C26.8932 74.7533 25.5165 76.0133 24.2098 77.18C22.9032 78.3 21.8532 79.21 21.0598 79.91C19.0998 81.6367 17.3032 83.3633 15.6698 85.09C14.0365 86.8167 12.8465 88.1933 12.0998 89.22C11.8665 89.4533 11.7265 89.57 11.6798 89.57C11.5865 89.57 11.5398 89.4767 11.5398 89.29C11.5398 89.01 11.6098 88.7767 11.7498 88.59C12.4498 87.61 13.5232 86.35 14.9698 84.81C16.4632 83.27 17.9565 81.7067 19.4498 80.12C19.9632 79.6067 20.8032 78.7667 21.9698 77.6C23.1832 76.4333 24.5365 75.08 26.0298 73.54C27.5232 71.9533 28.9698 70.3433 30.3698 68.71C31.7698 67.0767 32.9132 65.56 33.7998 64.16C34.7332 62.7133 35.1998 61.57 35.1998 60.73C35.1998 60.2167 35.0598 59.8667 34.7798 59.68C34.5465 59.4933 34.2432 59.4 33.8698 59.4C33.1232 59.4 32.2132 59.7733 31.1398 60.52C30.1132 61.2667 29.0165 62.2233 27.8498 63.39C26.7298 64.51 25.6332 65.7 24.5598 66.96C23.4865 68.1733 22.5532 69.27 21.7598 70.25C21.0132 71.23 20.4765 71.9067 20.1498 72.28C18.4232 74.2867 16.7898 76.62 15.2498 79.28C13.7565 81.8933 12.4732 84.4133 11.3998 86.84C11.1198 87.4933 10.7932 88.4267 10.4198 89.64C10.0932 90.8533 9.92984 92.0433 9.92984 93.21C9.92984 94.0033 10.0465 94.75 10.2798 95.45C10.5598 96.1033 11.0732 96.57 11.8198 96.85C12.1465 96.99 12.3098 97.0833 12.3098 97.13C12.3098 97.1767 12.2165 97.2233 12.0298 97.27C11.8432 97.3167 11.6798 97.3167 11.5398 97.27ZM41.3598 107.91C41.3132 107.957 41.1965 107.957 41.0098 107.91C40.8698 107.91 40.8932 107.817 41.0798 107.63C41.5932 107.21 42.0598 106.673 42.4798 106.02C42.8998 105.367 43.1098 104.643 43.1098 103.85C43.1098 102.823 42.6665 102.007 41.7798 101.4C40.8932 100.84 39.7032 100.443 38.2098 100.21C36.7632 99.9767 35.1998 99.86 33.5198 99.86C31.7932 99.86 30.0665 99.93 28.3398 100.07C26.6598 100.257 25.1665 100.443 23.8598 100.63C22.5532 100.817 21.6198 100.98 21.0598 101.12C19.4732 101.4 17.8632 101.68 16.2298 101.96C14.5965 102.24 12.9632 102.38 11.3298 102.38C9.88318 102.38 8.55318 102.217 7.33984 101.89C6.17318 101.563 5.26318 100.957 4.60984 100.07C4.04984 99.2767 3.76984 98.39 3.76984 97.41C3.76984 96.85 3.88651 96.3133 4.11984 95.8C4.35318 95.2867 4.72651 94.8667 5.23984 94.54H5.37984C5.47318 94.54 5.54318 94.61 5.58984 94.75C5.68318 94.8433 5.63651 94.96 5.44984 95.1C4.88984 95.52 4.60984 96.0567 4.60984 96.71C4.60984 97.2233 4.79651 97.7133 5.16984 98.18C5.91651 98.9733 6.89651 99.5333 8.10984 99.86C9.36984 100.187 10.7698 100.35 12.3098 100.35C14.2698 100.35 16.3698 100.187 18.6098 99.86C20.8965 99.4867 23.1598 99.09 25.3998 98.67C27.6398 98.2033 29.7165 97.8067 31.6298 97.48C33.5898 97.1067 35.2232 96.92 36.5298 96.92C38.5832 96.92 40.2865 97.2467 41.6398 97.9C43.0398 98.5533 43.7398 99.86 43.7398 101.82C43.7398 102.007 43.7165 102.217 43.6698 102.45C43.6698 102.73 43.6465 103.01 43.5998 103.29C44.0198 103.757 44.2298 104.27 44.2298 104.83C44.2298 105.157 44.1365 105.507 43.9498 105.88C43.7632 106.253 43.4598 106.557 43.0398 106.79C42.8998 106.837 42.6198 107 42.1998 107.28C41.7798 107.607 41.4998 107.817 41.3598 107.91ZM50.4845 100.91C49.2245 100.91 48.0578 100.467 46.9845 99.58C45.9578 98.6467 45.4445 97.2933 45.4445 95.52C45.4445 94.12 45.8178 92.6033 46.5645 90.97C47.3111 89.3367 48.2678 87.7733 49.4345 86.28C50.6478 84.7867 51.9311 83.55 53.2845 82.57C54.6378 81.59 55.8978 81.0767 57.0645 81.03C57.2511 81.2167 57.4611 81.3567 57.6945 81.45C57.9745 81.5433 58.2311 81.6367 58.4645 81.73L60.2845 82.15C61.3111 82.43 61.8245 83.0833 61.8245 84.11C61.8245 84.7167 61.6145 85.37 61.1945 86.07C60.8211 86.77 60.2378 87.3767 59.4445 87.89C59.0245 88.17 58.5578 88.45 58.0445 88.73C57.5778 89.01 57.0878 89.29 56.5745 89.57L53.4245 91.25C52.4445 91.7633 51.5811 92.3233 50.8345 92.93C50.0878 93.49 49.5511 94.0967 49.2245 94.75C49.2245 94.75 49.1545 94.7733 49.0145 94.82C48.9211 94.82 48.8978 94.7267 48.9445 94.54C49.2711 93.7467 49.9011 92.9533 50.8345 92.16C51.8145 91.32 52.7945 90.5967 53.7745 89.99C54.2411 89.6167 54.7078 89.29 55.1745 89.01C55.6878 88.73 56.1778 88.4267 56.6445 88.1C57.1111 87.7733 57.5545 87.4467 57.9745 87.12C58.4411 86.7467 58.8378 86.3967 59.1645 86.07C59.5378 85.6967 59.7945 85.3233 59.9345 84.95C60.1211 84.5767 60.2145 84.25 60.2145 83.97C60.2145 83.0833 59.7011 82.64 58.6745 82.64C58.0211 82.64 57.2745 82.92 56.4345 83.48C55.4078 84.18 54.4278 85.02 53.4945 86C52.5611 86.9333 51.6745 87.96 50.8345 89.08C49.9478 90.2933 49.1545 91.6933 48.4545 93.28C47.8011 94.8667 47.4745 96.1967 47.4745 97.27C47.4745 98.3433 47.7778 99.1133 48.3845 99.58C49.0378 100 49.7845 100.21 50.6245 100.21C51.7911 100.21 52.9111 99.9067 53.9845 99.3C54.7778 98.8333 55.5245 98.25 56.2245 97.55C56.9245 96.8033 57.5078 96.15 57.9745 95.59C58.3478 95.1233 58.7678 94.5633 59.2345 93.91C59.7478 93.2567 60.0978 92.7667 60.2845 92.44C60.3778 92.3467 60.4478 92.3467 60.4945 92.44C60.5411 92.5333 60.5645 92.6033 60.5645 92.65C60.3778 92.9767 60.0511 93.5133 59.5845 94.26C59.1645 94.96 58.5345 95.8467 57.6945 96.92C56.7145 98.18 55.6878 99.16 54.6145 99.86C53.5411 100.56 52.1645 100.91 50.4845 100.91ZM64.9734 101.05C63.62 101.05 62.4534 100.537 61.4734 99.51C60.54 98.4833 60.0734 97.0833 60.0734 95.31C60.0734 94.6567 60.1434 93.9567 60.2834 93.21C60.47 92.4167 60.7267 91.6 61.0534 90.76C61.7534 89.1267 62.71 87.5633 63.9234 86.07C65.1834 84.5767 66.5367 83.34 67.9834 82.36C69.43 81.38 70.8067 80.89 72.1134 80.89C72.2534 80.89 72.4167 80.96 72.6034 81.1C72.79 81.1933 72.93 81.2867 73.0234 81.38L73.3734 81.73C73.9334 82.29 74.47 82.6167 74.9834 82.71C75.5434 82.8033 75.9867 83.0833 76.3134 83.55C76.8734 84.4367 77.1534 85.51 77.1534 86.77C77.1534 88.4967 76.6167 90.3867 75.5434 92.44C74.5167 94.4467 73.1167 96.2667 71.3434 97.9C70.4567 98.6933 69.4767 99.4167 68.4034 100.07C67.33 100.723 66.1867 101.05 64.9734 101.05ZM65.4634 100.28C66.5834 100.28 67.7267 99.9067 68.8934 99.16C70.06 98.3667 71.1334 97.34 72.1134 96.08C73.14 94.82 74.0034 93.49 74.7034 92.09C75.45 90.69 75.9167 89.36 76.1034 88.1C76.15 87.8667 76.1734 87.6333 76.1734 87.4C76.22 87.12 76.2434 86.8867 76.2434 86.7C76.2434 85.44 75.94 84.53 75.3334 83.97C74.7267 83.3633 74.0034 83.06 73.1634 83.06C72.2767 83.06 71.3667 83.34 70.4334 83.9C69.5467 84.4133 68.4267 85.4867 67.0734 87.12C65.72 88.7067 64.5067 90.3633 63.4334 92.09C62.4534 93.63 61.9634 95.1233 61.9634 96.57C61.9634 97.5967 62.2434 98.4833 62.8034 99.23C63.41 99.93 64.2967 100.28 65.4634 100.28ZM90.2237 100.91C89.0103 100.91 88.147 100.56 87.6337 99.86C87.167 99.1133 86.9337 98.25 86.9337 97.27C86.9337 96.15 87.097 95.03 87.4237 93.91C87.797 92.7433 88.1937 91.6933 88.6137 90.76C89.0803 89.78 89.4537 89.0333 89.7337 88.52C90.527 87.0267 90.9237 86.0467 90.9237 85.58C90.9237 85.0667 90.6903 84.9033 90.2237 85.09C89.8503 85.23 89.337 85.6267 88.6837 86.28C88.0303 86.9333 87.3537 87.68 86.6537 88.52C85.9537 89.36 85.3237 90.13 84.7637 90.83C84.2503 91.53 83.9237 91.9967 83.7837 92.23C82.477 94.0967 81.567 95.6367 81.0537 96.85C80.5403 98.0633 80.167 98.95 79.9337 99.51C79.8403 99.7433 79.5837 99.86 79.1637 99.86C78.7437 99.86 78.3237 99.6967 77.9037 99.37C77.4837 98.9967 77.2737 98.46 77.2737 97.76C77.2737 97.3867 77.4837 96.7333 77.9037 95.8C78.3237 94.82 78.837 93.6767 79.4437 92.37C80.0037 91.11 80.5637 89.85 81.1237 88.59C81.6837 87.2833 82.127 86.2567 82.4537 85.51C82.127 85.23 81.9637 85.02 81.9637 84.88C81.9637 84.74 81.987 84.6233 82.0337 84.53C82.127 84.2967 82.3137 83.9233 82.5937 83.41C82.8737 82.85 83.1537 82.3133 83.4337 81.8C83.7137 81.24 83.9003 80.89 83.9937 80.75C84.1337 80.6567 84.4837 80.4933 85.0437 80.26C85.6503 80.0267 86.2337 79.91 86.7937 79.91H87.0737C87.6337 79.91 87.9137 80.0733 87.9137 80.4C87.9137 80.7267 87.7503 81.1467 87.4237 81.66C87.2837 81.8933 86.957 82.5 86.4437 83.48C85.9303 84.4133 85.347 85.4867 84.6937 86.7C84.0403 87.9133 83.4337 89.08 82.8737 90.2C82.3603 91.2733 81.987 92.09 81.7537 92.65C81.6137 93.07 81.5437 93.49 81.5437 93.91C81.5903 94.2833 81.707 94.33 81.8937 94.05C83.2003 92.09 84.4137 90.41 85.5337 89.01C86.6537 87.61 87.7737 86.3033 88.8937 85.09C90.0137 83.8767 91.2503 82.6167 92.6037 81.31C93.0703 81.4967 93.5603 81.59 94.0737 81.59C94.587 81.59 95.0303 81.73 95.4037 82.01C95.5903 82.15 95.6837 82.3833 95.6837 82.71C95.6837 83.3633 95.287 84.3433 94.4937 85.65C93.747 86.91 92.907 88.3333 91.9737 89.92C91.2737 91.1333 90.5737 92.5333 89.8737 94.12C89.1737 95.7067 88.8237 97.0833 88.8237 98.25C88.8237 98.8567 88.917 99.37 89.1037 99.79C89.337 100.163 89.687 100.35 90.1537 100.35C90.5737 100.35 91.0403 100.187 91.5537 99.86C91.927 99.6267 92.7437 98.8567 94.0037 97.55C95.2637 96.1967 96.6403 94.3767 98.1337 92.09C98.2737 91.95 98.367 91.88 98.4137 91.88C98.507 91.88 98.5537 91.9267 98.5537 92.02C98.5537 92.1133 98.4837 92.3 98.3437 92.58C96.8037 95.1933 95.2637 97.2467 93.7237 98.74C92.2303 100.187 91.0637 100.91 90.2237 100.91ZM99.8394 100.77C98.8594 100.77 98.1127 100.303 97.5994 99.37C97.1327 98.39 96.8994 97.55 96.8994 96.85C96.8994 95.2167 97.3894 93.5133 98.3694 91.74C99.3494 89.9667 100.586 88.2867 102.079 86.7C103.619 85.1133 105.229 83.83 106.909 82.85C108.589 81.87 110.153 81.38 111.599 81.38C112.019 81.38 112.486 81.5667 112.999 81.94C113.559 82.2667 114.073 82.8033 114.539 83.55C114.633 83.6433 114.749 83.8533 114.889 84.18C115.029 84.46 115.029 84.7167 114.889 84.95L114.819 84.81C114.726 84.5767 114.516 84.39 114.189 84.25C113.863 84.0633 113.373 83.97 112.719 83.97C111.646 83.97 110.433 84.3433 109.079 85.09C107.773 85.8367 106.443 86.84 105.089 88.1C103.783 89.36 102.593 90.7367 101.519 92.23C100.446 93.7233 99.6527 95.24 99.1394 96.78C98.8127 97.5733 98.6494 98.25 98.6494 98.81C98.6494 99.51 98.906 99.86 99.4194 99.86C99.7927 99.86 100.236 99.6733 100.749 99.3C101.729 98.5533 102.756 97.5967 103.829 96.43C104.903 95.2633 105.929 94.05 106.909 92.79C107.936 91.53 108.823 90.3633 109.569 89.29C110.363 88.2167 110.923 87.4233 111.249 86.91C111.389 86.7233 111.553 86.63 111.739 86.63C111.973 86.5833 112.253 86.56 112.579 86.56C113.513 86.56 114.096 86.7233 114.329 87.05C114.609 87.33 114.633 87.6333 114.399 87.96C113.793 88.8467 113.139 89.8733 112.439 91.04C111.786 92.2067 111.203 93.35 110.689 94.47C110.223 95.59 109.989 96.5933 109.989 97.48C109.989 98.18 110.269 98.53 110.829 98.53C111.343 98.53 111.903 98.2267 112.509 97.62C113.069 97.1067 113.723 96.36 114.469 95.38C115.263 94.4 116.033 93.3733 116.779 92.3C117.573 91.2267 118.226 90.2933 118.739 89.5C118.926 89.2667 119.066 89.1733 119.159 89.22C119.299 89.22 119.299 89.36 119.159 89.64C118.413 90.8067 117.643 92.02 116.849 93.28C116.056 94.4933 115.216 95.6367 114.329 96.71C112.649 98.8567 111.389 99.93 110.549 99.93C109.803 99.93 109.103 99.6967 108.449 99.23C107.796 98.7633 107.469 98.0867 107.469 97.2C107.469 96.2667 107.656 95.1933 108.029 93.98C108.449 92.72 108.823 91.74 109.149 91.04C108.169 92.5333 107.049 94.0267 105.789 95.52C104.529 97.0133 103.339 98.2733 102.219 99.3C101.146 100.28 100.353 100.77 99.8394 100.77ZM124.167 100.91C123.047 100.91 122.277 100.537 121.857 99.79C121.437 98.9967 121.297 98.1567 121.437 97.27C121.623 96.0567 121.95 95.0767 122.417 94.33C122.93 93.5833 123.537 92.7667 124.237 91.88C124.797 91.0867 125.333 90.27 125.847 89.43C126.36 88.59 126.43 88.1 126.057 87.96C125.823 88.1467 125.427 88.3567 124.867 88.59C124.307 88.8233 123.723 88.94 123.117 88.94C122.603 88.94 122.09 88.8233 121.577 88.59C121.11 88.3567 120.76 87.9367 120.527 87.33C119.92 88.45 119.173 89.6867 118.287 91.04C117.447 92.3467 116.583 93.6067 115.697 94.82C114.857 96.0333 114.11 97.0367 113.457 97.83C113.27 98.0167 113.107 98.0867 112.967 98.04C112.78 97.9933 112.757 97.8767 112.897 97.69C113.97 96.3367 115.207 94.6333 116.607 92.58C118.007 90.5267 119.29 88.31 120.457 85.93C121.623 83.5033 122.347 81.1467 122.627 78.86C124.213 79.6067 125.007 80.5633 125.007 81.73C125.007 82.6167 124.633 83.5267 123.887 84.46C123.14 85.3467 122.16 86.1633 120.947 86.91C121.553 87.7967 122.323 88.24 123.257 88.24C123.957 88.24 124.657 88.03 125.357 87.61C126.103 87.1433 126.687 86.63 127.107 86.07C127.48 85.65 127.783 85.37 128.017 85.23C128.297 85.09 128.53 85.02 128.717 85.02C129.37 85.02 129.837 85.23 130.117 85.65C130.443 86.0233 130.49 86.4433 130.257 86.91C129.417 88.0767 128.46 89.5233 127.387 91.25C126.313 92.93 125.357 94.5167 124.517 96.01C124.377 96.1967 124.19 96.6167 123.957 97.27C123.723 97.9233 123.607 98.5067 123.607 99.02C123.607 99.72 123.887 100.07 124.447 100.07C125.1 100.07 125.847 99.6967 126.687 98.95C127.527 98.1567 128.367 97.2233 129.207 96.15C130.047 95.03 130.793 93.9567 131.447 92.93C132.147 91.9033 132.66 91.1567 132.987 90.69C133.22 90.27 133.407 90.06 133.547 90.06C133.593 90.06 133.617 90.1067 133.617 90.2C133.617 90.3867 133.547 90.5967 133.407 90.83C132.707 91.9967 131.96 93.1633 131.167 94.33C130.373 95.4967 129.58 96.6167 128.787 97.69C128.04 98.67 127.27 99.44 126.477 100C125.73 100.607 124.96 100.91 124.167 100.91ZM134.864 100.77C134.164 100.77 133.511 100.537 132.904 100.07C132.297 99.6033 131.807 99.0667 131.434 98.46C131.061 97.8533 130.874 97.34 130.874 96.92C130.874 95.3333 131.364 93.6767 132.344 91.95C133.324 90.1767 134.561 88.52 136.054 86.98C137.594 85.44 139.204 84.2033 140.884 83.27C142.564 82.29 144.127 81.8 145.574 81.8C145.807 81.8 146.041 81.8467 146.274 81.94C146.507 82.0333 146.811 82.2433 147.184 82.57C149.051 78.6967 151.104 74.8933 153.344 71.16C155.584 67.38 157.754 64.2533 159.854 61.78C161.674 59.5867 163.517 57.9067 165.384 56.74C167.297 55.5267 169.257 54.6867 171.264 54.22C172.664 53.8467 174.111 53.66 175.604 53.66C175.837 53.66 176.094 53.66 176.374 53.66C176.654 53.66 176.911 53.6833 177.144 53.73C177.611 53.7767 178.147 53.9167 178.754 54.15C179.361 54.3833 179.711 54.64 179.804 54.92C179.897 55.1067 179.897 55.2233 179.804 55.27C179.711 55.3167 179.594 55.27 179.454 55.13C179.127 54.85 178.707 54.6633 178.194 54.57C177.727 54.43 177.214 54.36 176.654 54.36C175.767 54.36 174.881 54.4767 173.994 54.71C173.107 54.9433 172.407 55.1767 171.894 55.41C170.354 56.2033 168.767 57.3233 167.134 58.77C165.501 60.17 163.891 61.78 162.304 63.6C160.017 66.2133 157.847 69.06 155.794 72.14C153.787 75.22 151.991 78.3 150.404 81.38C148.864 84.46 147.651 87.33 146.764 89.99C145.924 92.65 145.504 94.89 145.504 96.71C145.504 96.99 145.504 97.27 145.504 97.55C145.551 97.7833 145.597 98.0167 145.644 98.25C145.784 98.8567 146.017 99.2767 146.344 99.51C146.671 99.7433 147.044 99.86 147.464 99.86C147.931 99.86 148.374 99.7667 148.794 99.58C149.261 99.3467 149.657 99.09 149.984 98.81C150.871 98.0167 151.874 96.8733 152.994 95.38C154.161 93.8867 155.257 92.3933 156.284 90.9C156.471 90.6667 156.587 90.5967 156.634 90.69C156.681 90.7833 156.657 90.8767 156.564 90.97C156.377 91.2967 155.957 91.95 155.304 92.93C154.651 93.91 153.904 94.96 153.064 96.08C152.271 97.2 151.501 98.1333 150.754 98.88C149.541 100.093 148.304 100.7 147.044 100.7C146.111 100.7 145.317 100.303 144.664 99.51C144.011 98.7167 143.684 97.5967 143.684 96.15C143.684 95.6833 143.731 94.9133 143.824 93.84C143.917 92.7667 144.057 91.8567 144.244 91.11C143.171 92.8833 142.051 94.5167 140.884 96.01C139.764 97.4567 138.667 98.6233 137.594 99.51C136.567 100.35 135.657 100.77 134.864 100.77ZM134.374 99.86C134.794 99.86 135.261 99.6733 135.774 99.3C136.614 98.6467 137.547 97.76 138.574 96.64C139.647 95.52 140.697 94.33 141.724 93.07C142.797 91.7633 143.731 90.5267 144.524 89.36C144.757 88.6133 145.084 87.7267 145.504 86.7C145.924 85.6733 146.297 84.74 146.624 83.9C146.017 83.8067 145.317 83.9 144.524 84.18C143.777 84.4133 143.241 84.6233 142.914 84.81C141.654 85.5567 140.324 86.6067 138.924 87.96C137.571 89.2667 136.357 90.69 135.284 92.23C134.211 93.7233 133.417 95.17 132.904 96.57C132.764 96.8967 132.694 97.27 132.694 97.69C132.694 98.25 132.834 98.7633 133.114 99.23C133.441 99.65 133.861 99.86 134.374 99.86ZM159.925 101.05C158.571 101.05 157.405 100.537 156.425 99.51C155.491 98.4833 155.025 97.0833 155.025 95.31C155.025 94.6567 155.095 93.9567 155.235 93.21C155.421 92.4167 155.678 91.6 156.005 90.76C156.705 89.1267 157.661 87.5633 158.875 86.07C160.135 84.5767 161.488 83.34 162.935 82.36C164.381 81.38 165.758 80.89 167.065 80.89C167.205 80.89 167.368 80.96 167.555 81.1C167.741 81.1933 167.881 81.2867 167.975 81.38L168.325 81.73C168.885 82.29 169.421 82.6167 169.935 82.71C170.495 82.8033 170.938 83.0833 171.265 83.55C171.825 84.4367 172.105 85.51 172.105 86.77C172.105 88.4967 171.568 90.3867 170.495 92.44C169.468 94.4467 168.068 96.2667 166.295 97.9C165.408 98.6933 164.428 99.4167 163.355 100.07C162.281 100.723 161.138 101.05 159.925 101.05ZM160.415 100.28C161.535 100.28 162.678 99.9067 163.845 99.16C165.011 98.3667 166.085 97.34 167.065 96.08C168.091 94.82 168.955 93.49 169.655 92.09C170.401 90.69 170.868 89.36 171.055 88.1C171.101 87.8667 171.125 87.6333 171.125 87.4C171.171 87.12 171.195 86.8867 171.195 86.7C171.195 85.44 170.891 84.53 170.285 83.97C169.678 83.3633 168.955 83.06 168.115 83.06C167.228 83.06 166.318 83.34 165.385 83.9C164.498 84.4133 163.378 85.4867 162.025 87.12C160.671 88.7067 159.458 90.3633 158.385 92.09C157.405 93.63 156.915 95.1233 156.915 96.57C156.915 97.5967 157.195 98.4833 157.755 99.23C158.361 99.93 159.248 100.28 160.415 100.28ZM219.193 103.15C218.026 103.15 216.906 102.66 215.833 101.68C214.759 100.7 213.779 99.3933 212.893 97.76C212.006 96.1267 211.236 94.3533 210.583 92.44C209.929 90.5267 209.416 88.6133 209.043 86.7C208.716 84.7867 208.553 83.0833 208.553 81.59V81.52C208.553 81.2867 208.623 81.1233 208.763 81.03C208.903 80.89 208.996 80.7967 209.043 80.75C209.323 80.5167 209.929 80.3067 210.863 80.12C213.523 79.6533 216.159 79.0933 218.773 78.44C221.433 77.7867 223.906 76.76 226.193 75.36C228.479 73.9133 230.416 71.86 232.003 69.2C232.563 68.22 232.843 67.2633 232.843 66.33C232.843 65.1633 232.329 64.23 231.303 63.53C230.323 62.7833 229.039 62.2233 227.453 61.85C225.913 61.43 224.279 61.15 222.553 61.01C222.366 61.1967 222.109 61.43 221.783 61.71C221.503 61.99 221.269 62.2467 221.083 62.48C219.869 63.6933 218.423 65.2333 216.743 67.1C215.063 68.9667 213.336 71.02 211.563 73.26C209.789 75.4533 208.133 77.7167 206.593 80.05C205.053 82.3833 203.793 84.67 202.813 86.91C201.879 89.15 201.413 91.2267 201.413 93.14C201.413 93.98 201.553 94.7733 201.833 95.52C202.113 96.22 202.766 96.6167 203.793 96.71C203.606 96.8033 203.419 96.85 203.233 96.85C202.579 96.85 201.973 96.57 201.413 96.01C200.853 95.4033 200.409 94.7033 200.083 93.91C199.756 93.07 199.593 92.3233 199.593 91.67C199.593 90.13 199.989 88.3333 200.783 86.28C201.576 84.2267 202.626 82.0567 203.933 79.77C205.239 77.4367 206.709 75.1267 208.343 72.84C210.023 70.5067 211.749 68.3133 213.523 66.26C215.296 64.2067 216.999 62.3867 218.633 60.8C216.439 60.8467 213.873 60.9633 210.933 61.15C208.039 61.29 205.053 61.5933 201.973 62.06C198.893 62.48 195.999 63.11 193.293 63.95C190.633 64.7433 188.439 65.8167 186.713 67.17C186.293 67.4967 185.919 67.94 185.593 68.5C185.313 69.06 185.173 69.62 185.173 70.18C185.173 70.74 185.336 71.2067 185.663 71.58C185.756 71.6733 185.803 71.7667 185.803 71.86C185.803 72 185.709 72.0933 185.523 72.14C185.383 72.1867 185.266 72.1867 185.173 72.14C184.706 71.8133 184.193 71.3467 183.633 70.74C183.119 70.1333 182.676 69.5267 182.303 68.92C181.929 68.2667 181.743 67.7533 181.743 67.38C181.743 66.2133 182.653 65.14 184.473 64.16C186.293 63.18 188.649 62.3167 191.543 61.57C194.436 60.8233 197.493 60.2633 200.713 59.89C202.486 59.6567 204.563 59.47 206.943 59.33C209.369 59.1433 211.843 59.05 214.363 59.05C216.323 59.05 218.213 59.12 220.033 59.26L220.663 58.7C220.569 58.56 220.523 58.3267 220.523 58C220.523 57.3933 220.943 56.7167 221.783 55.97C222.016 55.69 222.296 55.4333 222.623 55.2C222.949 54.9667 223.253 54.7333 223.533 54.5C223.859 54.3133 224.116 54.15 224.303 54.01C224.489 53.8233 224.746 53.6367 225.073 53.45C225.726 53.4967 226.309 53.66 226.823 53.94C227.383 54.1733 227.663 54.64 227.663 55.34C227.663 55.5267 227.616 55.76 227.523 56.04C227.383 56.3667 227.079 56.81 226.613 57.37C226.146 57.8833 225.446 58.5833 224.513 59.47C225.773 59.6567 227.056 59.9833 228.363 60.45C229.669 60.87 230.813 61.5233 231.793 62.41C232.819 63.25 233.496 64.3933 233.823 65.84C234.149 66.12 234.383 66.5867 234.523 67.24C234.709 67.8467 234.803 68.4767 234.803 69.13C234.803 70.53 234.289 71.8133 233.263 72.98C232.283 74.1467 231.023 75.15 229.483 75.99C227.989 76.83 226.449 77.5067 224.863 78.02C223.276 78.5333 221.876 78.8367 220.663 78.93C219.916 78.9767 218.773 79.1867 217.233 79.56C215.739 79.8867 214.293 80.2367 212.893 80.61C212.893 82.01 213.009 83.5733 213.243 85.3C213.476 87.0267 213.756 88.73 214.083 90.41C214.456 92.09 214.853 93.56 215.273 94.82C215.879 96.5 216.649 97.97 217.583 99.23C218.563 100.443 219.659 101.05 220.873 101.05C221.526 101.05 222.179 100.863 222.833 100.49C223.533 100.117 224.256 99.51 225.003 98.67C225.609 98.0167 226.216 97.3167 226.823 96.57C227.429 95.8233 227.966 95.1233 228.433 94.47C228.899 93.8167 229.273 93.28 229.553 92.86C229.879 92.3933 230.113 92.0667 230.253 91.88C230.393 91.6467 230.533 91.53 230.673 91.53C230.766 91.53 230.813 91.6 230.813 91.74C230.813 91.88 230.766 92.0433 230.673 92.23C230.206 92.8833 229.529 93.8633 228.643 95.17C227.803 96.43 227.033 97.48 226.333 98.32C225.259 99.72 224.139 100.863 222.973 101.75C221.853 102.683 220.593 103.15 219.193 103.15ZM234.573 101.05C233.22 101.05 232.053 100.537 231.073 99.51C230.14 98.4833 229.673 97.0833 229.673 95.31C229.673 94.6567 229.743 93.9567 229.883 93.21C230.07 92.4167 230.326 91.6 230.653 90.76C231.353 89.1267 232.31 87.5633 233.523 86.07C234.783 84.5767 236.136 83.34 237.583 82.36C239.03 81.38 240.406 80.89 241.713 80.89C241.853 80.89 242.016 80.96 242.203 81.1C242.39 81.1933 242.53 81.2867 242.623 81.38L242.973 81.73C243.533 82.29 244.07 82.6167 244.583 82.71C245.143 82.8033 245.586 83.0833 245.913 83.55C246.473 84.4367 246.753 85.51 246.753 86.77C246.753 88.4967 246.216 90.3867 245.143 92.44C244.116 94.4467 242.716 96.2667 240.943 97.9C240.056 98.6933 239.076 99.4167 238.003 100.07C236.93 100.723 235.786 101.05 234.573 101.05ZM235.063 100.28C236.183 100.28 237.326 99.9067 238.493 99.16C239.66 98.3667 240.733 97.34 241.713 96.08C242.74 94.82 243.603 93.49 244.303 92.09C245.05 90.69 245.516 89.36 245.703 88.1C245.75 87.8667 245.773 87.6333 245.773 87.4C245.82 87.12 245.843 86.8867 245.843 86.7C245.843 85.44 245.54 84.53 244.933 83.97C244.326 83.3633 243.603 83.06 242.763 83.06C241.876 83.06 240.966 83.34 240.033 83.9C239.146 84.4133 238.026 85.4867 236.673 87.12C235.32 88.7067 234.106 90.3633 233.033 92.09C232.053 93.63 231.563 95.1233 231.563 96.57C231.563 97.5967 231.843 98.4833 232.403 99.23C233.01 99.93 233.896 100.28 235.063 100.28ZM253.453 101.05C252.007 101.05 250.77 100.513 249.743 99.44C248.763 98.3667 248.273 96.92 248.273 95.1C248.273 93.7467 248.577 92.3 249.183 90.76C249.883 89.1267 250.793 87.5867 251.913 86.14C253.08 84.6467 254.34 83.4333 255.693 82.5C257.047 81.52 258.377 81.03 259.683 81.03C260.57 81.03 261.433 81.2867 262.273 81.8C263.113 82.2667 263.417 83.0367 263.183 84.11C263.137 84.25 263.043 84.3433 262.903 84.39C262.81 84.4367 262.763 84.4367 262.763 84.39C262.437 83.4567 261.737 82.99 260.663 82.99C260.057 82.99 259.427 83.2 258.773 83.62C257.467 84.6 256.23 85.7667 255.063 87.12C253.943 88.4267 252.987 89.7567 252.193 91.11C251.4 92.4633 250.863 93.7 250.583 94.82C250.49 95.2867 250.397 95.7067 250.303 96.08C250.257 96.4067 250.233 96.7567 250.233 97.13C250.233 98.2967 250.537 99.1367 251.143 99.65C251.75 100.117 252.473 100.35 253.313 100.35C254.667 100.35 255.927 99.93 257.093 99.09C258.12 98.2967 259.077 97.3867 259.963 96.36C260.85 95.3333 261.713 94.19 262.553 92.93C262.693 92.6967 262.833 92.58 262.973 92.58C263.02 92.58 263.043 92.6267 263.043 92.72C263.043 92.86 262.95 93.0933 262.763 93.42C262.063 94.4467 261.27 95.5667 260.383 96.78C259.497 97.9467 258.517 98.9033 257.443 99.65C256.79 100.117 256.113 100.467 255.413 100.7C254.76 100.933 254.107 101.05 253.453 101.05ZM273.825 105.46C272.565 105.46 271.725 105.063 271.305 104.27C270.932 103.523 270.745 102.8 270.745 102.1C270.745 100.98 271.049 99.6267 271.655 98.04C272.262 96.4533 272.962 94.82 273.755 93.14C274.595 91.46 275.365 89.99 276.065 88.73C276.625 87.75 276.905 86.98 276.905 86.42C276.905 86.0467 276.765 85.86 276.485 85.86C276.112 85.86 275.459 86.2567 274.525 87.05C273.639 87.8433 272.705 88.8 271.725 89.92C270.745 90.9933 269.905 91.9967 269.205 92.93C268.505 93.8633 267.829 94.9133 267.175 96.08C266.569 97.2467 266.009 98.2267 265.495 99.02C265.262 99.44 264.982 99.65 264.655 99.65C264.329 99.65 264.002 99.4633 263.675 99.09C263.349 98.7167 263.185 98.04 263.185 97.06C263.185 96.64 263.372 95.6833 263.745 94.19C264.165 92.65 264.725 90.83 265.425 88.73C266.125 86.63 266.919 84.46 267.805 82.22C268.739 79.98 269.719 77.88 270.745 75.92C272.099 73.4467 273.569 71.0433 275.155 68.71C276.742 66.33 278.329 64.1833 279.915 62.27C281.502 60.3567 282.995 58.84 284.395 57.72C285.795 56.6 286.939 56.04 287.825 56.04C288.619 56.04 289.132 56.2267 289.365 56.6C289.599 56.9267 289.785 57.3233 289.925 57.79C290.112 58.21 290.462 58.5833 290.975 58.91C290.789 60.0767 290.205 61.5467 289.225 63.32C288.292 65.0933 286.915 66.96 285.095 68.92C282.575 71.6267 280.032 74.59 277.465 77.81C274.899 80.9833 272.589 84.11 270.535 87.19C270.349 87.4233 270.162 87.54 269.975 87.54C269.835 87.54 269.859 87.4 270.045 87.12C271.632 84.32 273.405 81.66 275.365 79.14C277.372 76.62 279.402 74.1233 281.455 71.65C283.555 69.13 285.515 66.5633 287.335 63.95C287.895 63.1567 288.292 62.5033 288.525 61.99C288.759 61.43 288.875 60.9867 288.875 60.66C288.875 60.1467 288.619 59.89 288.105 59.89C287.032 59.89 285.749 60.6833 284.255 62.27C282.762 63.9033 281.129 65.8633 279.355 68.15C277.629 70.4367 276.089 72.6067 274.735 74.66C273.989 75.78 273.125 77.2267 272.145 79C271.212 80.7267 270.279 82.5467 269.345 84.46C268.459 86.3267 267.712 88.0533 267.105 89.64C266.545 91.2267 266.265 92.4167 266.265 93.21C266.265 93.63 266.429 93.84 266.755 93.84C266.942 93.84 267.129 93.77 267.315 93.63C267.502 93.49 267.689 93.3267 267.875 93.14C268.995 92.02 270.185 90.7833 271.445 89.43C272.752 88.0767 274.059 86.7233 275.365 85.37C276.672 83.97 277.862 82.7333 278.935 81.66C279.449 81.8467 279.892 81.94 280.265 81.94C280.685 81.94 281.152 82.0567 281.665 82.29C282.132 82.4767 282.365 82.85 282.365 83.41C282.365 83.7367 282.272 84.1333 282.085 84.6C281.899 85.0667 281.665 85.5567 281.385 86.07C280.359 87.7967 279.239 89.4767 278.025 91.11C276.812 92.6967 275.692 94.3533 274.665 96.08C273.685 97.76 272.962 99.6267 272.495 101.68C272.449 101.913 272.402 102.17 272.355 102.45C272.355 102.73 272.355 102.987 272.355 103.22C272.355 104.433 272.705 105.04 273.405 105.04C273.825 105.04 274.269 104.83 274.735 104.41L276.695 102.66C276.322 103.5 275.902 104.177 275.435 104.69C275.015 105.203 274.479 105.46 273.825 105.46ZM284.273 100.77C283.293 100.77 282.546 100.303 282.033 99.37C281.566 98.39 281.333 97.55 281.333 96.85C281.333 95.2167 281.823 93.5133 282.803 91.74C283.783 89.9667 285.02 88.2867 286.513 86.7C288.053 85.1133 289.663 83.83 291.343 82.85C293.023 81.87 294.586 81.38 296.033 81.38C296.453 81.38 296.92 81.5667 297.433 81.94C297.993 82.2667 298.506 82.8033 298.973 83.55C299.066 83.6433 299.183 83.8533 299.323 84.18C299.463 84.46 299.463 84.7167 299.323 84.95L299.253 84.81C299.16 84.5767 298.95 84.39 298.623 84.25C298.296 84.0633 297.806 83.97 297.153 83.97C296.08 83.97 294.866 84.3433 293.513 85.09C292.206 85.8367 290.876 86.84 289.523 88.1C288.216 89.36 287.026 90.7367 285.953 92.23C284.88 93.7233 284.086 95.24 283.573 96.78C283.246 97.5733 283.083 98.25 283.083 98.81C283.083 99.51 283.34 99.86 283.853 99.86C284.226 99.86 284.67 99.6733 285.183 99.3C286.163 98.5533 287.19 97.5967 288.263 96.43C289.336 95.2633 290.363 94.05 291.343 92.79C292.37 91.53 293.256 90.3633 294.003 89.29C294.796 88.2167 295.356 87.4233 295.683 86.91C295.823 86.7233 295.986 86.63 296.173 86.63C296.406 86.5833 296.686 86.56 297.013 86.56C297.946 86.56 298.53 86.7233 298.763 87.05C299.043 87.33 299.066 87.6333 298.833 87.96C298.226 88.8467 297.573 89.8733 296.873 91.04C296.22 92.2067 295.636 93.35 295.123 94.47C294.656 95.59 294.423 96.5933 294.423 97.48C294.423 98.18 294.703 98.53 295.263 98.53C295.776 98.53 296.336 98.2267 296.943 97.62C297.503 97.1067 298.156 96.36 298.903 95.38C299.696 94.4 300.466 93.3733 301.213 92.3C302.006 91.2267 302.66 90.2933 303.173 89.5C303.36 89.2667 303.5 89.1733 303.593 89.22C303.733 89.22 303.733 89.36 303.593 89.64C302.846 90.8067 302.076 92.02 301.283 93.28C300.49 94.4933 299.65 95.6367 298.763 96.71C297.083 98.8567 295.823 99.93 294.983 99.93C294.236 99.93 293.536 99.6967 292.883 99.23C292.23 98.7633 291.903 98.0867 291.903 97.2C291.903 96.2667 292.09 95.1933 292.463 93.98C292.883 92.72 293.256 91.74 293.583 91.04C292.603 92.5333 291.483 94.0267 290.223 95.52C288.963 97.0133 287.773 98.2733 286.653 99.3C285.58 100.28 284.786 100.77 284.273 100.77Z" fill="#fff"/>
<path d="M38.6237 141.6L45.6857 154.822H45.7737L52.9017 141.6H54.4197V157H52.4177V144.526H52.3297L45.3777 157.264H44.9817L38.1837 144.438H38.0957V157H37.1277V141.6H38.6237ZM75.1078 141.6H85.0518V142.81H77.1098V148.332H83.9298V149.344H77.1098V155.79H85.0518V157H75.1078V141.6ZM103.962 157V141.6H109.022C110.239 141.6 111.354 141.798 112.366 142.194C113.378 142.575 114.243 143.111 114.962 143.8C115.695 144.475 116.26 145.281 116.656 146.22C117.067 147.159 117.272 148.171 117.272 149.256C117.272 150.385 117.059 151.427 116.634 152.38C116.223 153.319 115.651 154.133 114.918 154.822C114.199 155.511 113.356 156.047 112.388 156.428C111.42 156.809 110.386 157 109.286 157H103.962ZM105.964 156.032H108.384C109.587 156.032 110.606 155.834 111.442 155.438C112.293 155.027 112.989 154.499 113.532 153.854C114.075 153.209 114.471 152.49 114.72 151.698C114.969 150.891 115.094 150.092 115.094 149.3C115.094 148.42 114.947 147.577 114.654 146.77C114.361 145.949 113.928 145.23 113.356 144.614C112.799 143.983 112.102 143.485 111.266 143.118C110.43 142.751 109.469 142.568 108.384 142.568H105.964V156.032ZM136.844 141.6H138.846V157H136.844V141.6ZM173.367 154.162L174.027 154.756C173.837 154.976 173.558 155.233 173.191 155.526C172.825 155.819 172.363 156.098 171.805 156.362C171.263 156.611 170.617 156.824 169.869 157C169.136 157.176 168.3 157.264 167.361 157.264C165.88 157.264 164.604 157.037 163.533 156.582C162.463 156.113 161.583 155.504 160.893 154.756C160.204 153.993 159.691 153.128 159.353 152.16C159.031 151.177 158.869 150.173 158.869 149.146C158.869 147.958 159.075 146.887 159.485 145.934C159.896 144.966 160.475 144.145 161.223 143.47C161.971 142.781 162.866 142.253 163.907 141.886C164.963 141.519 166.129 141.336 167.405 141.336C168.285 141.336 169.07 141.424 169.759 141.6C170.449 141.776 171.05 142.018 171.563 142.326C172.077 142.634 172.502 143.001 172.839 143.426C173.191 143.851 173.477 144.313 173.697 144.812H172.069C171.967 144.504 171.783 144.203 171.519 143.91C171.27 143.602 170.94 143.331 170.529 143.096C170.133 142.861 169.671 142.671 169.143 142.524C168.63 142.377 168.058 142.304 167.427 142.304C166.503 142.304 165.645 142.473 164.853 142.81C164.076 143.147 163.401 143.617 162.829 144.218C162.257 144.819 161.81 145.538 161.487 146.374C161.179 147.195 161.025 148.105 161.025 149.102C161.025 150.041 161.172 150.943 161.465 151.808C161.773 152.673 162.221 153.436 162.807 154.096C163.394 154.756 164.127 155.284 165.007 155.68C165.887 156.076 166.899 156.274 168.043 156.274C170.097 156.274 171.871 155.57 173.367 154.162ZM193.383 141.6H195.385V157H193.383V141.6ZM229.356 141.6H230.368V157.264H230.258L218.048 145.23H217.96V157H216.948V141.336H217.058L229.268 153.37H229.356V141.6ZM259.597 152.468H252.007L250.071 157H249.059L255.571 141.6H256.671L263.843 157H261.709L259.597 152.468ZM259.135 151.478L255.681 144.064H255.593L252.425 151.478H259.135Z" fill="#fff"/>
<path d="M39.1046 190.078C38.2726 190.078 37.5923 189.909 37.0636 189.571C36.5436 189.233 36.1883 188.765 35.9976 188.167C35.8069 187.569 35.7896 186.889 35.9456 186.126L36.9856 180.9H37.9346L36.8946 186.126C36.7993 186.577 36.7733 186.993 36.8166 187.374C36.8599 187.755 36.9726 188.085 37.1546 188.362C37.3453 188.639 37.6096 188.852 37.9476 188.999C38.2856 189.146 38.7016 189.22 39.1956 189.22C39.8196 189.22 40.3483 189.107 40.7816 188.882C41.2149 188.648 41.5659 188.306 41.8346 187.855C42.1119 187.404 42.3199 186.85 42.4586 186.191L43.5116 180.9H44.4476L43.3816 186.256C43.1389 187.504 42.6579 188.453 41.9386 189.103C41.2279 189.753 40.2833 190.078 39.1046 190.078ZM48.1395 190L49.9595 180.9H50.7395L55.3285 188.843L55.0295 188.791L56.6025 180.9H57.5515L55.7315 190H54.9515L50.3625 182.057L50.6615 182.109L49.0885 190H48.1395ZM61.3147 190L63.1347 180.9H64.0837L62.2637 190H61.3147ZM67.8375 190L69.6575 180.9H70.4375L75.0265 188.843L74.7275 188.791L76.3005 180.9H77.2495L75.4295 190H74.6495L70.0605 182.057L70.3595 182.109L68.7865 190H67.8375ZM82.7807 190L84.4317 181.732H81.2207L81.3897 180.9H88.7477L88.5787 181.732H85.3807L83.7297 190H82.7807ZM92.9366 184.969H97.7466L97.5906 185.788H92.7806L92.9366 184.969ZM92.1956 189.168H97.6686L97.4996 190H91.0776L92.8976 180.9H99.1376L98.9686 181.732H93.6776L92.1956 189.168ZM102.374 190L104.194 180.9H107.47C108.501 180.9 109.299 181.125 109.862 181.576C110.434 182.027 110.72 182.659 110.72 183.474C110.72 184.245 110.547 184.904 110.2 185.45C109.862 185.987 109.377 186.399 108.744 186.685C108.111 186.971 107.362 187.114 106.495 187.114H103.492L103.999 186.672L103.336 190H102.374ZM108.601 190L106.742 186.698H107.769L109.641 190H108.601ZM103.973 186.75L103.648 186.282H106.508C107.539 186.282 108.337 186.052 108.9 185.593C109.472 185.134 109.758 184.458 109.758 183.565C109.758 182.967 109.554 182.512 109.147 182.2C108.74 181.888 108.159 181.732 107.405 181.732H104.584L105.078 181.264L103.973 186.75Z" fill="#fff"/>
<path d="M160.907 190L162.558 181.732H159.347L159.516 180.9H166.874L166.705 181.732H163.507L161.856 190H160.907ZM172.887 190.078C172.055 190.078 171.375 189.909 170.846 189.571C170.326 189.233 169.971 188.765 169.78 188.167C169.59 187.569 169.572 186.889 169.728 186.126L170.768 180.9H171.717L170.677 186.126C170.582 186.577 170.556 186.993 170.599 187.374C170.643 187.755 170.755 188.085 170.937 188.362C171.128 188.639 171.392 188.852 171.73 188.999C172.068 189.146 172.484 189.22 172.978 189.22C173.602 189.22 174.131 189.107 174.564 188.882C174.998 188.648 175.349 188.306 175.617 187.855C175.895 187.404 176.103 186.85 176.241 186.191L177.294 180.9H178.23L177.164 186.256C176.922 187.504 176.441 188.453 175.721 189.103C175.011 189.753 174.066 190.078 172.887 190.078ZM181.922 190L183.742 180.9H187.018C188.05 180.9 188.847 181.125 189.41 181.576C189.982 182.027 190.268 182.659 190.268 183.474C190.268 184.245 190.095 184.904 189.748 185.45C189.41 185.987 188.925 186.399 188.292 186.685C187.66 186.971 186.91 187.114 186.043 187.114H183.04L183.547 186.672L182.884 190H181.922ZM188.149 190L186.29 186.698H187.317L189.189 190H188.149ZM183.521 186.75L183.196 186.282H186.056C187.088 186.282 187.885 186.052 188.448 185.593C189.02 185.134 189.306 184.458 189.306 183.565C189.306 182.967 189.103 182.512 188.695 182.2C188.288 181.888 187.707 181.732 186.953 181.732H184.132L184.626 181.264L183.521 186.75ZM193.917 190L195.737 180.9H196.517L199.286 188.011L198.883 187.998L204.343 180.9H205.188L203.368 190H202.445L203.979 182.317L204.226 182.343L199.182 188.843H198.727L196.153 182.304L196.361 182.343L194.84 190H193.917ZM207.477 190L213.457 180.9H214.406L216.746 190H215.784L213.652 181.433H214.042L208.517 190H207.477ZM209.596 187.569L210.038 186.789H215.329L215.472 187.569H209.596ZM225.592 190L230.259 185.034L230.207 185.567L227.633 180.9H228.647L230.857 184.917L230.428 184.865L234.159 180.9H235.251L230.896 185.554L230.922 185.034L233.652 190H232.638L230.298 185.723L230.701 185.749L226.736 190H225.592ZM236.432 190L241.099 185.034L241.047 185.567L238.473 180.9H239.487L241.697 184.917L241.268 184.865L244.999 180.9H246.091L241.736 185.554L241.762 185.034L244.492 190H243.478L241.138 185.723L241.541 185.749L237.576 190H236.432ZM248.507 190L250.327 180.9H251.276L249.456 190H248.507ZM255.029 190L256.849 180.9H257.798L255.978 190H255.029ZM261.552 190L263.372 180.9H264.321L262.501 190H261.552Z" fill="#fff"/>
<path d="M130.746 186.88L130.902 186.074H134.308L134.152 186.88H130.746Z" fill="#fff"/>
<line x1="25" y1="122.5" x2="275" y2="122.5" stroke="#fff"/>
<path d="M119.023 31.8168V24.4498L112 20.5249L149.998 0L188 20.5267L172.851 29.4247V34.6645V35.077C172.81 35.0554 172.758 35.0355 172.713 35.0139C172.876 35.2391 172.981 35.4588 172.981 35.6894C172.981 38.2615 162.697 40.3582 149.998 40.3582C137.307 40.3582 127.012 38.2615 127.012 35.6894C127.012 35.4588 127.123 35.2391 127.279 35.0139C127.235 35.041 127.183 35.0554 127.144 35.077V34.6645V29.4103L120.535 25.2981V31.8168C121.256 32.1158 121.764 32.8399 121.764 33.6792C121.764 34.7888 120.875 35.6894 119.78 35.6894C118.674 35.6894 117.787 34.7888 117.787 33.6792C117.787 32.8399 118.292 32.1158 119.023 31.8168ZM149.998 38.5876C161.267 38.5876 170.396 37.2871 170.396 35.6912C170.396 34.0953 161.267 32.7984 149.998 32.7984C138.735 32.7984 129.602 34.0953 129.602 35.6912C129.602 37.2871 138.735 38.5876 149.998 38.5876ZM127.641 25.1306C129.155 23.4933 134.601 19.1956 149.998 19.1956C165.404 19.1956 170.842 23.4969 172.354 25.136V23.5798C172.354 23.5798 167.944 16.8846 149.998 16.8846C132.054 16.8846 127.641 23.5798 127.641 23.5798V25.1306Z" fill="#fff"/>
<path d="M121.39 36.1018L122.223 47.5C119.801 43.7012 117.804 45.1332 117.804 45.1332V36.1018C120.387 37.1159 121.39 36.1018 121.39 36.1018Z" fill="#fff"/>
</svg>
